<svg width="27" height="27" viewBox="0 0 27 27" fill="none" xmlns="http://www.w3.org/2000/svg">
<circle cx="13.5" cy="13.5" r="13" fill="white" stroke="#A8AFB8"/>
<path d="M19.3824 9.6H17.2654L16.2206 8.178C16.1802 8.12316 16.1256 8.07821 16.0614 8.04716C15.9973 8.0161 15.9257 7.9999 15.8529 8H11.1471C11.0743 7.9999 11.0027 8.0161 10.9386 8.04716C10.8744 8.07821 10.8198 8.12316 10.7794 8.178L9.73382 9.6H7.61765C7.18862 9.6 6.77717 9.75452 6.4738 10.0296C6.17043 10.3046 6 10.6777 6 11.0667V18.5333C6 18.9223 6.17043 19.2954 6.4738 19.5704C6.77717 19.8455 7.18862 20 7.61765 20H19.3824C19.8114 20 20.2228 19.8455 20.5262 19.5704C20.8296 19.2954 21 18.9223 21 18.5333V11.0667C21 10.6777 20.8296 10.3046 20.5262 10.0296C20.2228 9.75452 19.8114 9.6 19.3824 9.6ZM20.1176 18.5333C20.1176 18.7101 20.0402 18.8797 19.9023 19.0047C19.7644 19.1298 19.5774 19.2 19.3824 19.2H7.61765C7.42263 19.2 7.23561 19.1298 7.09772 19.0047C6.95982 18.8797 6.88235 18.7101 6.88235 18.5333V11.0667C6.88235 10.8899 6.95982 10.7203 7.09772 10.5953C7.23561 10.4702 7.42263 10.4 7.61765 10.4H9.97059C10.0433 10.4001 10.1149 10.3839 10.1791 10.3528C10.2432 10.3218 10.2979 10.2768 10.3382 10.222L11.3831 8.8H15.6162L16.6618 10.222C16.7021 10.2768 16.7568 10.3218 16.8209 10.3528C16.8851 10.3839 16.9567 10.4001 17.0294 10.4H19.3824C19.5774 10.4 19.7644 10.4702 19.9023 10.5953C20.0402 10.7203 20.1176 10.8899 20.1176 11.0667V18.5333ZM13.5 11.7333C12.8892 11.7333 12.2921 11.8976 11.7843 12.2052C11.2764 12.5129 10.8806 12.9502 10.6468 13.4618C10.4131 13.9735 10.3519 14.5364 10.4711 15.0796C10.5903 15.6227 10.8844 16.1216 11.3163 16.5132C11.7482 16.9048 12.2985 17.1715 12.8975 17.2795C13.4966 17.3876 14.1175 17.3321 14.6818 17.1202C15.2461 16.9083 15.7284 16.5494 16.0678 16.0889C16.4071 15.6285 16.5882 15.0871 16.5882 14.5333C16.5882 13.7907 16.2629 13.0785 15.6837 12.5534C15.1046 12.0283 14.3191 11.7333 13.5 11.7333ZM13.5 16.5333C13.0637 16.5333 12.6372 16.416 12.2745 16.1963C11.9117 15.9765 11.629 15.6642 11.462 15.2987C11.2951 14.9332 11.2514 14.5311 11.3365 14.1432C11.4216 13.7552 11.6317 13.3988 11.9402 13.1191C12.2487 12.8394 12.6418 12.6489 13.0697 12.5718C13.4976 12.4946 13.9411 12.5342 14.3442 12.6856C14.7472 12.837 15.0917 13.0933 15.3341 13.4222C15.5765 13.7511 15.7059 14.1378 15.7059 14.5333C15.7059 15.0638 15.4735 15.5725 15.0598 15.9475C14.6461 16.3226 14.085 16.5333 13.5 16.5333Z" fill="#5F666F"/>
</svg>
